<svg width="26" height="20" viewBox="0 0 26 20" fill="none" xmlns="http://www.w3.org/2000/svg">
<path fill-rule="evenodd" clip-rule="evenodd" d="M20.4571 0.506937C19.7812 -0.168979 18.6853 -0.168979 18.0094 0.506938C17.3335 1.18285 17.3335 2.27873 18.0094 2.95465L21.8539 6.79919L18.014 10.6392C17.338 11.3151 17.338 12.4109 18.014 13.0869C18.6899 13.7628 19.7858 13.7628 20.4617 13.0869L25.4931 8.05546C25.8691 7.67947 26.0359 7.17354 25.9936 6.68223C25.9745 6.2663 25.8061 5.85596 25.4885 5.53834L20.4571 0.506937Z" fill="#D9D9D9"/>
<path fill-rule="evenodd" clip-rule="evenodd" d="M25.0284 6.56361C25.0284 5.64531 24.284 4.90088 23.3657 4.90088H7.43852C3.33034 4.90088 0 8.23122 0 12.3394V12.3394C0 16.4476 3.33034 19.7779 7.43852 19.7779H23.3657C24.284 19.7779 25.0284 19.0335 25.0284 18.1152V18.1152C25.0284 17.1969 24.284 16.4525 23.3657 16.4525H7.43852C5.16693 16.4525 3.32546 14.611 3.32546 12.3394V12.3394C3.32546 10.0678 5.16694 8.22633 7.43852 8.22633H23.3657C24.284 8.22633 25.0284 7.48191 25.0284 6.56361V6.56361Z" fill="#D9D9D9"/>
</svg>
