<svg width="62" height="62" viewBox="0 0 62 62" fill="none" xmlns="http://www.w3.org/2000/svg">
	<path fill-rule="evenodd" clip-rule="evenodd" d="M31 62C48.1208 62 62 48.1208 62 31C62 13.8792 48.1208 0 31 0C13.8792 0 0 13.8792 0 31C0 48.1208 13.8792 62 31 62ZM31 57C45.3594 57 57 45.3594 57 31C57 16.6406 45.3594 5 31 5C16.6406 5 5 16.6406 5 31C5 45.3594 16.6406 57 31 57Z" fill="#fff" />
	<path fill-rule="evenodd" clip-rule="evenodd" d="M22.7279 18.4853L18.4853 22.7279L26.9706 31.2132L18.4853 39.6985L22.7279 43.9411L31.2132 35.4558L39.6985 43.9411L43.9411 39.6985L35.4558 31.2132L43.9411 22.7279L39.6985 18.4853L31.2132 26.9706L22.7279 18.4853Z" fill="#fff" />
</svg>
